<svg width="565" height="378" viewBox="0 0 565 378" fill="none" xmlns="http://www.w3.org/2000/svg">
<g clip-path="url(#clip0_1069_4971)">
<path d="M33.51 368.51V371.06H68.94V368.51C57.61 368.51 54.74 366.76 54.74 349.52V273.88C54.74 265.58 57.29 262.55 66.07 262.55H73.25C88.57 262.55 92.88 270.05 100.22 288.56L102.45 287.76L94.31 253.61L92.08 254.09C93.2 259.2 90.48 259.36 84.74 259.36H17.71C11.97 259.36 9.25 259.2 10.37 254.09L8.14 253.61L0 287.77L2.23 288.57C9.57 270.06 13.88 262.56 29.2 262.56H36.38C45.16 262.56 47.71 265.59 47.71 273.89V349.53C47.71 366.76 44.84 368.52 33.51 368.52V368.51ZM157.34 368.51V371.06H188.3V368.51C181.6 368.51 179.2 364.04 173.78 350.16L136.6 254.09H135.8C135 256.48 133.73 258.56 131.97 260.15V261.11L133.73 265.42L101.97 347.12C96.23 361.96 92.55 368.5 84.42 368.5V371.05H116.49V368.5C103.88 368.5 99.1 362.76 105.16 347.28L110.9 332.28H159.41L166.27 350.15C171.7 364.19 168.5 368.5 157.33 368.5L157.34 368.51ZM112.18 329.1L135.16 269.58L158.14 329.1H112.18ZM258.51 377.13L260.42 377.61L270.15 342.18L267.76 341.54C260.9 362.44 257.71 367.87 233.77 367.87H224.99C210.95 367.87 208.23 366.59 208.23 356.54V280.9C208.23 263.67 211.26 261.91 221.32 261.91V259.36H188.13V261.91C198.5 261.91 201.21 263.67 201.21 280.9V349.52C201.21 366.75 198.34 368.51 188.13 368.51V371.06H251.16C256.43 371.06 259.62 372.02 258.5 377.12L258.51 377.13ZM338.94 377.13L341.01 377.61L349.15 347.61L346.92 346.97C341.17 364.05 335.27 367.88 318.2 367.88H305.75C289.95 367.88 288.83 366.6 288.83 356.55V313.94H304.79C317.24 313.94 318.51 317.45 318.51 331.49H320.9V293.03H318.51C318.51 306.27 317.39 310.74 304.63 310.74H288.83V273.88C288.83 263.83 290.11 262.55 305.59 262.55H315.8C333.83 262.55 336.86 266.7 343.41 281.38L345.49 280.74L338.15 252.66L336.08 253.14C337.36 258.25 334.32 259.36 328.9 259.36H268.74V261.91C279.11 261.91 281.82 263.67 281.82 280.9V349.52C281.82 366.75 279.11 368.51 268.74 368.51V371.06H331.77C337.35 371.06 340.23 372.02 338.95 377.12L338.94 377.13ZM350.59 368.51V371.06H385.06V368.51C369.58 368.51 366.39 363.56 366.39 350.48V270.53L449.21 372.5H450.01V279.95C450.01 266.55 453.04 261.92 461.82 261.92V259.37H427.19V261.92C443.47 261.92 446.98 266.39 446.98 280.11V358.46L366.24 259.36H350.6V261.91C359.7 261.91 363.37 264.14 363.37 274.2V350.48C363.37 363.57 359.86 368.51 350.6 368.51H350.59ZM495.16 368.51V371.06H530.59V368.51C519.26 368.51 516.39 366.76 516.39 349.52V273.88C516.39 265.58 518.94 262.55 527.72 262.55H534.9C550.22 262.55 554.53 270.05 561.87 288.56L564.1 287.76L555.96 253.61L553.73 254.09C554.85 259.2 552.13 259.36 546.39 259.36H479.37C473.63 259.36 470.91 259.2 472.03 254.09L469.8 253.61L461.66 287.76L463.89 288.56C471.23 270.05 475.54 262.55 490.86 262.55H498.04C506.82 262.55 509.37 265.58 509.37 273.88V349.52C509.37 366.75 506.5 368.51 495.17 368.51H495.16Z" fill="white"/>
<path d="M4.31055 242.18V244.73H32.8705V242.18C23.6105 242.18 20.1005 237.23 20.1005 223.99V144.68L67.9705 238.19H68.9305L117.441 140.53V223.03C117.441 240.26 114.571 242.18 104.361 242.18V244.73H137.551V242.18C127.341 242.18 124.461 240.27 124.461 223.35V154.57C124.461 137.49 127.491 135.58 137.551 135.58V133.03H117.601L70.5305 228.3L22.0205 133.03H4.31055V135.58C13.4105 135.58 17.0805 137.81 17.0805 147.87V223.99C17.0805 237.23 13.5705 242.18 4.31055 242.18ZM195.961 247.61C228.351 247.61 252.451 225.59 252.451 187.61C252.451 149.63 226.441 130.16 197.401 130.16C165.011 130.16 140.911 152.18 140.911 190.16C140.911 228.14 166.921 247.61 195.961 247.61ZM196.441 244.42C166.441 244.42 149.201 220.16 149.201 189.37C149.201 154.1 168.511 133.36 196.911 133.36C226.911 133.36 244.141 157.62 244.141 188.41C244.141 223.68 224.831 244.42 196.431 244.42H196.441ZM307.661 247.61C335.431 247.61 347.231 231.17 347.231 201.01V153.46C347.231 140.22 350.261 135.59 359.361 135.59V133.04H329.681V135.59C341.651 135.59 344.201 140.22 344.201 153.62V201.65C344.201 229.26 332.871 242.66 308.621 242.66C284.371 242.66 273.991 230.05 273.991 202.13V154.58C273.991 137.35 277.181 135.59 287.391 135.59V133.04H253.561V135.59C264.251 135.59 266.961 137.35 266.961 154.58V202.93C266.961 233.57 281.481 247.61 307.651 247.61H307.661ZM362.551 242.18V244.73H397.181V242.18C385.691 242.18 382.661 240.42 382.661 223.19V187.61H399.581L419.691 214.42C429.581 227.5 435.811 236.12 442.031 244.74H459.421V242.19C451.601 242.19 445.861 236.92 428.781 214.74L407.561 186.97C427.511 184.26 440.271 174.04 440.271 159.2C440.271 143.4 426.231 133.03 402.931 133.03H362.561V135.58C372.931 135.58 375.641 137.34 375.641 154.57V223.19C375.641 240.42 372.931 242.18 362.561 242.18H362.551ZM399.091 184.41H382.651V147.87C382.651 137.34 385.841 136.22 400.361 136.22H403.231C423.341 136.22 432.271 146.91 432.271 159.68C432.271 176.44 417.111 184.41 399.081 184.41H399.091ZM543.821 247.6C551.641 247.6 559.301 242.49 559.301 231.96C559.301 223.02 553.711 215.36 532.651 197.17C535.521 188.39 540.791 180.1 549.411 175.79C551.961 174.51 554.361 172.6 554.361 169.73C554.361 167.02 552.291 165.1 549.251 165.1C540.951 165.1 533.931 178.98 529.781 194.78C526.431 191.91 522.601 188.88 518.451 185.36C498.821 169.24 490.051 162.22 490.051 149.93C490.051 140.2 495.631 133.01 505.211 133.01C517.821 133.01 519.731 146.73 527.871 146.73C531.381 146.73 532.981 144.34 532.981 141.78C532.981 134.92 521.971 130.13 509.521 130.13C493.081 130.13 482.711 138.59 482.711 151.19C482.711 159.01 486.701 165.39 495.001 173.69C469.471 183.74 457.341 199.38 457.341 216.62C457.341 233.86 469.631 247.58 487.981 247.58C509.041 247.58 520.531 229.87 526.921 211.36C526.601 214.71 526.441 217.74 526.441 220.77C526.441 238.96 533.461 247.58 543.831 247.58L543.821 247.6ZM464.991 215.05C464.991 198.13 476.161 183.29 496.911 175.63C501.541 179.94 507.281 184.89 514.301 190.79C519.571 195.1 524.031 199.09 528.181 202.6C521.161 223.03 511.261 241.7 490.041 241.7C472.961 241.7 464.991 229.57 464.991 215.05ZM529.141 220.63C529.141 216 529.461 210.58 530.741 204.83C546.221 218.87 552.761 227.33 552.761 235.47C552.761 240.58 550.211 244.89 543.501 244.89C535.841 244.89 529.141 238.83 529.141 220.63Z" fill="white"/>
<path d="M107.789 115.85V118.4H144.169V115.85C131.089 115.85 128.209 114.09 128.209 96.7V70.53C132.199 71.01 137.939 71.49 142.569 71.49C168.579 71.49 185.809 57.93 185.809 37.66C185.809 17.39 169.529 6.7 146.239 6.7H107.779V9.25C118.469 9.25 121.179 11.01 121.179 28.24V96.7C121.179 114.25 118.469 115.85 107.779 115.85H107.789ZM142.739 68.3C138.109 68.3 132.689 67.98 128.219 67.34V20.74C128.219 11.16 131.409 9.89 141.779 9.89C158.699 9.89 177.999 16.27 177.999 37.98C177.999 59.69 159.329 68.3 142.729 68.3H142.739ZM244.549 115.85V118.4H275.509V115.85C268.809 115.85 266.409 111.38 260.989 97.5L223.799 1.44H222.999C222.199 3.83 220.919 5.91 219.169 7.5V8.46L220.919 12.77L189.169 94.47C183.419 109.31 179.749 115.85 171.619 115.85V118.4H203.689V115.85C191.079 115.85 186.299 110.11 192.359 94.63L198.099 79.63H246.609L253.469 97.5C258.899 111.54 255.699 115.85 244.529 115.85H244.549ZM199.389 76.43L222.369 16.91L245.349 76.43H199.389ZM392.159 121.27C428.539 121.27 454.869 99.09 458.229 65.74L455.519 65.42C451.369 97.33 425.359 116.8 393.289 116.8C356.109 116.8 335.999 90.79 324.029 60.31C344.139 57.12 353.069 45.47 353.069 32.86C353.069 17.06 339.029 6.69 315.729 6.69H275.359V9.24C285.729 9.24 288.449 11 288.449 28.23V96.85C288.449 114.08 285.739 115.84 275.359 115.84V118.39H309.989V115.84C298.499 115.84 295.469 114.08 295.469 96.85V61.26H315.579C328.819 95.41 352.599 121.26 392.179 121.26L392.159 121.27ZM311.889 58.08H295.449V21.54C295.449 11.01 298.639 9.89 313.159 9.89H316.029C336.139 9.89 345.069 20.58 345.069 33.35C345.069 50.11 329.909 58.08 311.879 58.08H311.889ZM410.989 87.28V89.83H439.079V87.28C432.219 87.28 430.139 85.36 425.359 73.24L396.459 0H395.659C394.699 2.23 392.629 3.51 390.549 4.79V5.59L393.099 11.81L369.959 70.69C365.009 83.3 361.659 87.29 354.479 87.29V89.84H382.409V87.29C374.269 87.29 368.369 83.62 373.149 71.17L376.979 61.28H413.039L417.829 73.25C422.459 84.74 420.859 87.29 410.969 87.29L410.989 87.28ZM378.279 58.08L394.719 15.79L411.789 58.08H378.279Z" fill="white"/>
</g>
<defs>
<clipPath id="clip0_1069_4971">
<rect width="564.09" height="377.61" fill="white"/>
</clipPath>
</defs>
</svg>
